<svg xmlns="http://www.w3.org/2000/svg" viewBox="0 0 200 200" fill="none">
  <path d="M26 68a12 12 0 0 1 12-12h40l13 14h71a12 12 0 0 1 12 12v58a12 12 0 0 1-12 12H38a12 12 0 0 1-12-12V68z" fill="var(--surface-2)"/>
  <rect x="44" y="88" width="72" height="48" rx="8" fill="var(--surface-0)" stroke="var(--text-muted)" stroke-width="4"/>
  <rect x="54" y="98" width="12" height="12" rx="2" fill="var(--accent)"/>
  <rect x="74" y="98" width="12" height="12" rx="2" fill="var(--text-primary)" opacity=".45"/>
  <rect x="54" y="118" width="12" height="12" rx="2" fill="var(--text-primary)" opacity=".45"/>
  <path d="M134 98h24m-24 16h16" stroke="var(--text-muted)" stroke-width="5" stroke-linecap="round"/>
</svg>
